<?xml version="1.0" encoding="UTF-8"?>
<svg id="Capa_2" data-name="Capa 2" xmlns="http://www.w3.org/2000/svg" version="1.1" viewBox="0 0 437.3 136.4">
  <defs>
    <style>
      .cls-1 {
        fill: #b5b3b3;
        stroke-width: 0px;
      }
    </style>
  </defs>
  <g id="Capa_1-2" data-name="Capa 1-2">
    <g>
      <path class="cls-1" d="M369.1,0c-22.4,0-42.2,10.7-54.6,27.3h84.8c3.1,0,5.9-1.5,5.9-1.5l-16.3,16.3c-6,5.8-13.8,6.1-14.5,6.1h-70.4c-1.2,4.1-2.1,8.3-2.6,12.7h64.2c3.2,0,6-1.5,6-1.5l-16,16h0c-6,6.2-14.2,6.4-15,6.4h-38.3c6.4,31.1,33.9,54.6,66.9,54.6s68.2-30.6,68.2-68.2S406.7,0,369,0"/>
      <path class="cls-1" d="M17.3,39.4v9.1h19.9v12h-19.9v21.4H.3V27.3h39.7v12h-22.7ZM55.5,72.4l-3.8,9.5h-15l21-54.5h15.5l20.5,54.5h-15.1l-3.5-9.5h-19.5ZM65.4,44.2h-.2l-5.8,17.3h11.8l-5.8-17.3h0ZM149.6,51.4c-.2,7.9-.7,14.8-5.5,21.5-5.3,7.5-13.4,10.7-22.5,10.7-17.1,0-29.1-11.7-29.1-28.7s12-29.4,29.6-29.4,19.9,5.1,24.5,15.2l-13.5,5.6c-2-5.2-6.1-8.7-11.8-8.7-9.3,0-14.2,8.9-14.2,17.2s5.1,17,14.4,17,10.8-3.2,11.4-9.5h-11.6v-11.1h28.1,0ZM215,53.6c0,17.6-12.6,30-30.1,30s-30.1-12.4-30.1-30,14.4-28,30.1-28c15.7,0,30.1,11.6,30.1,28M169.4,53.6c0,9.4,6.9,16.3,15.4,16.3s15.4-6.9,15.4-16.3-6.9-14.4-15.4-14.4c-8.4,0-15.4,6.9-15.4,14.4M267.7,81.8h-16.8l-11.9-20.8h-3.3v20.8h-14.1V27.3h25c10.8,0,19,5.1,19,16.8s-4.2,14-11.9,15.4l14.1,22.3h0ZM235.7,51.8h5.5c4.6,0,9.8-.9,9.8-6.8s-5.2-6.8-9.8-6.8h-5.5v13.6h0Z"/>
      <g>
        <path class="cls-1" d="M2.7,107.7v7.9H0v-20.2h7.5c2.2,0,3.9.6,5.2,1.7,1.2,1.1,1.9,2.6,1.9,4.5s-.6,3.5-1.9,4.6-3,1.6-5.3,1.6H2.7ZM2.7,105.5h4.8c1.4,0,2.5-.4,3.3-1,.8-.7,1.1-1.7,1.1-2.9s-.4-2.2-1.1-2.9-1.8-1.1-3.1-1.1H2.7v8h0Z"/>
        <path class="cls-1" d="M32.5,107.4h-4.8v8.2h-2.7v-20.2h6.7c2.3,0,4,.5,5.3,1.6,1.2,1,1.9,2.5,1.9,4.6s-.4,2.4-1,3.3-1.6,1.7-2.8,2.1l4.8,8.6v.2h-2.8l-4.4-8.2h0ZM27.8,105.3h4.1c1.4,0,2.4-.4,3.2-1s1.2-1.6,1.2-2.7-.4-2.2-1.1-2.9c-.7-.7-1.8-1-3.2-1h-4.1v7.7h0Z"/>
        <path class="cls-1" d="M65.3,106.2c0,2-.3,3.7-1,5.2s-1.6,2.6-2.8,3.4-2.6,1.2-4.3,1.2-3-.4-4.2-1.2c-1.2-.8-2.2-1.9-2.8-3.4s-1-3.1-1-5v-1.4c0-2,.4-3.7,1-5.2s1.7-2.6,2.8-3.4c1.2-.8,2.6-1.2,4.2-1.2s3.1.4,4.3,1.2,2.2,1.9,2.8,3.4,1,3.2,1,5.2c0,0,0,1.3,0,1.3ZM62.7,104.9c0-2.4-.5-4.2-1.5-5.5s-2.3-1.9-4-1.9-3,.6-4,1.9c-1,1.3-1.5,3.1-1.5,5.3v1.5c0,2.3.5,4.1,1.5,5.5s2.3,2,4,2,3.1-.6,4-1.9,1.5-3.1,1.5-5.4v-1.6s0,0,0,0Z"/>
        <path class="cls-1" d="M87.6,106.7h-8.5v9h-2.7v-20.2h12.6v2.2h-9.9v6.9h8.5v2.2h0Z"/>
        <path class="cls-1" d="M110.8,106.3h-8.8v7.2h10.2v2.2h-12.8v-20.2h12.7v2.2h-10.1v6.5h8.7v2.2h0Z"/>
        <path class="cls-1" d="M128.6,106.6c-2.3-.7-3.9-1.4-5-2.4-1-1-1.6-2.1-1.6-3.6s.6-2.9,1.9-3.9,2.9-1.6,5-1.6,2.6.3,3.7.8c1.1.5,1.9,1.3,2.5,2.2s.9,2,.9,3.1h-2.7c0-1.2-.4-2.2-1.2-2.9s-1.9-1-3.3-1-2.3.3-3.1.9-1.1,1.4-1.1,2.4.4,1.5,1,2.1c.7.6,1.9,1.1,3.6,1.6,1.7.5,3,1,3.9,1.6s1.7,1.2,2.1,2c.5.8.7,1.7.7,2.7,0,1.7-.6,2.9-1.9,3.9s-3,1.5-5.1,1.5-2.7-.3-3.9-.8-2.1-1.2-2.8-2.2c-.7-.9-1-2-1-3.2h2.7c0,1.2.5,2.2,1.3,2.9.9.7,2.1,1.1,3.6,1.1s2.5-.3,3.3-.9,1.1-1.3,1.1-2.3-.4-1.8-1-2.3c-.7-.7-1.9-1.2-3.8-1.8h0Z"/>
        <path class="cls-1" d="M152.6,106.6c-2.3-.7-3.9-1.4-5-2.4-1-1-1.6-2.1-1.6-3.6s.6-2.9,1.9-3.9,2.9-1.6,5-1.6,2.6.3,3.7.8c1.1.5,1.9,1.3,2.5,2.2s.9,2,.9,3.1h-2.7c0-1.2-.4-2.2-1.2-2.9s-1.9-1-3.3-1-2.3.3-3.1.9-1.1,1.4-1.1,2.4.4,1.5,1,2.1c.7.6,1.9,1.1,3.6,1.6s3,1,3.9,1.6,1.7,1.2,2.1,2c.5.8.7,1.7.7,2.7,0,1.7-.6,2.9-1.9,3.9s-3,1.5-5.1,1.5-2.7-.3-3.9-.8-2.1-1.2-2.8-2.2c-.7-.9-1-2-1-3.2h2.7c0,1.2.5,2.2,1.4,2.9.9.7,2.1,1.1,3.6,1.1s2.5-.3,3.3-.9,1.1-1.3,1.1-2.3-.4-1.8-1-2.3c-.7-.7-2-1.2-3.8-1.8h0Z"/>
        <path class="cls-1" d="M173.5,115.7h-2.7v-20.2h2.7v20.2Z"/>
        <path class="cls-1" d="M201.1,106.2c0,2-.3,3.7-1,5.2s-1.6,2.6-2.9,3.4-2.6,1.2-4.3,1.2-3-.4-4.2-1.2c-1.2-.8-2.2-1.9-2.9-3.4-.7-1.4-1-3.1-1-5v-1.4c0-2,.4-3.7,1-5.2.7-1.5,1.7-2.6,2.9-3.4,1.2-.8,2.6-1.2,4.2-1.2s3.1.4,4.3,1.2,2.2,1.9,2.9,3.4,1,3.2,1,5.2c0,0,0,1.3,0,1.3ZM198.4,104.9c0-2.4-.5-4.2-1.4-5.5s-2.3-1.9-4-1.9-3,.6-4,1.9-1.4,3.1-1.5,5.3v1.5c0,2.3.5,4.1,1.4,5.5s2.3,2,4,2,3.1-.6,4-1.9,1.4-3.1,1.4-5.4v-1.6s0,0,0,0Z"/>
        <path class="cls-1" d="M227.8,115.7h-2.7l-10.2-15.6v15.6h-2.7v-20.2h2.7l10.2,15.7v-15.7h2.6v20.2s0,0,0,0Z"/>
        <path class="cls-1" d="M250.8,110.3h-8.5l-1.9,5.3h-2.7l7.7-20.2h2.3l7.8,20.2h-2.7l-1.9-5.3h0ZM243.2,108.2h6.9l-3.5-9.5s-3.4,9.5-3.4,9.5Z"/>
        <path class="cls-1" d="M268,113.5h9.6v2.2h-12.3v-20.2h2.7v18.1h0Z"/>
      </g>
    </g>
  </g>
</svg>