<?xml version="1.0" encoding="utf-8"?>
<!-- Generator: Adobe Illustrator 24.1.2, SVG Export Plug-In . SVG Version: 6.00 Build 0)  -->
<svg version="1.1" id="Layer_1" xmlns="http://www.w3.org/2000/svg" xmlns:xlink="http://www.w3.org/1999/xlink" x="0px" y="0px"
	 viewBox="0 0 522.61 99.01" style="enable-background:new 0 0 522.61 99.01;" xml:space="preserve">
<style type="text/css">
	.st0{fill-rule:evenodd;clip-rule:evenodd;fill:#105BBC;}
</style>
<path class="st0" d="M515.8,51.36v25.06v0.62h-20.42V52.91v-3.09c0.31-5.26,0.93-9.9,2.48-13.61c1.54-3.71,3.71-6.81,7.11-9.28
	c4.33-3.4,9.9-4.95,16.71-4.95h0.93v21.35c-0.62-0.62-1.24-0.93-1.55-0.93c-0.62-0.31-0.93-0.31-1.54-0.31
	c-1.86,0-3.1,0.93-3.4,2.78c-0.31,0.62-0.31,1.24-0.31,2.17v3.71V51.36z M478.06,56c1.54-0.62,3.09-1.55,4.64-3.4l5.88,20.11
	c-3.4,1.55-6.81,2.78-9.59,3.71c-2.79,0.93-6.19,1.24-9.59,1.24c-4.64,0-8.66-0.93-12.38-2.17c-3.71-1.55-6.81-3.4-9.59-5.88
	c-2.48-2.48-4.64-5.57-6.19-8.97c-1.55-3.4-2.17-7.43-2.17-11.45c0-3.71,0.62-7.43,2.17-10.83c1.24-3.4,3.4-6.5,5.88-8.97
	s5.57-4.33,8.97-5.88c3.4-1.55,7.11-2.17,10.83-2.17c10.21,0,18.26,4.64,24.14,13.61l-18.88,22.28
	C474.65,56.93,476.51,56.62,478.06,56z M460.9,52.36c0.27,0.59,0.61,1.34,1.37,2.1l9.9-10.83c-0.93-0.93-1.55-1.24-2.17-1.55
	c-0.62-0.31-1.54-0.31-2.47-0.31c-1.86,0-3.71,0.62-4.95,2.17c-1.54,1.24-2.17,3.09-2.17,5.26c0,1.24,0,2.17,0.31,2.78
	C460.78,52.1,460.84,52.22,460.9,52.36z M433.81,76.43h-20.73V1.24h20.73V76.43z M384.3,22.28h20.73v54.15H384.3V22.28z
	 M394.82,20.11c-2.79,0-5.26-0.93-7.12-2.78c-2.17-1.86-3.09-4.33-2.79-7.12c0-2.78,0.93-5.26,2.79-7.12
	c1.86-2.17,4.33-3.09,7.12-3.09c2.79,0,5.26,1.24,7.11,3.09c1.86,1.86,2.79,4.33,2.79,7.12c0,2.78-0.93,5.26-2.79,7.12
	C400.08,19.18,397.61,20.11,394.82,20.11z M378.42,66.22v10.21h-21.04v-9.59V65.6c0-4.02-0.62-6.81-2.17-8.97
	c-1.24-2.17-3.71-3.71-7.12-4.64v24.44h-20.73V1.24h20.73v30.94c4.95-0.31,7.74-3.71,8.35-9.9h21.04c-0.31,4.02-1.55,7.43-3.4,10.21
	c-2.17,2.78-4.64,5.26-8.36,7.43c2.17,1.55,4.33,3.09,5.88,4.64c1.54,1.55,3.09,3.4,4.02,5.26c0.93,1.86,1.86,4.02,2.17,6.5
	c0.31,2.48,0.62,5.26,0.62,8.04V66.22z M319.63,57.24v19.18v0.31h-20.42V54.46v-1.24c0-1.09-0.11-2.07-0.19-2.88
	c-0.06-0.57-0.12-1.07-0.12-1.45c0-0.93-0.31-1.86-0.62-2.79c-0.62-0.93-1.55-2.17-2.78-2.78c-1.24-0.93-2.48-1.24-4.02-1.24
	c-2.17,0-3.71,0.62-5.26,2.17c-1.55,1.24-2.17,3.09-2.17,5.26c0,2.17,0.93,3.71,2.17,5.26c1.24,1.55,3.09,2.17,5.26,2.17
	c1.24,0,2.78-0.31,4.02-0.93v21.35h-1.55h-1.24c-4.33,0-8.04-0.62-11.76-2.17c-3.71-1.55-6.81-3.4-9.28-5.88
	c-2.78-2.48-4.64-5.57-6.19-8.97c-1.55-3.4-2.17-7.12-2.17-11.14c0-3.71,0.62-7.43,2.17-10.83c1.55-3.4,3.71-6.19,6.19-8.97
	c2.48-2.78,5.57-4.64,8.97-6.19c3.4-1.55,7.12-2.17,10.83-2.17c2.17,0,4.64,0.31,6.81,0.93c2.48,0.62,4.33,1.24,6.5,2.48
	c1.86,1.24,3.71,2.48,5.57,4.02c1.55,1.55,3.09,3.09,4.33,4.95c1.86,2.48,3.09,5.26,3.71,8.35c0.93,3.09,1.24,6.81,1.24,11.45V57.24
	z M228.04,99.01c-3.71,0-7.74-0.62-11.76-1.24V80.14c1.29,0.43,2.59,0.71,3.67,0.95c0.47,0.1,0.9,0.2,1.28,0.29
	c1.24,0.31,2.78,0.31,4.33,0.31h0c3.71,0,6.5-0.93,8.35-2.48c1.86-1.55,3.09-4.02,3.71-7.43c-3.4,2.48-7.43,3.71-11.45,3.71
	c-2.78,0-5.57-0.62-8.04-1.86c-2.48-1.24-4.33-2.79-5.88-4.95c-1.24-1.86-2.17-4.02-2.78-6.19c-0.62-2.17-0.93-4.95-0.93-8.66V52.6
	V22.59h20.73v24.75v1.24c0,2.48,0.31,4.02,0.93,4.95c0.62,0.93,1.55,1.24,3.09,1.24c1.55,0,2.78-0.62,3.4-1.55
	c0.62-0.93,0.93-2.48,0.93-4.64v-1.24V22.59h20.73v44.87v4.02c-0.31,5.26-1.24,9.59-3.09,13.31c-1.86,3.71-4.95,6.81-8.66,9.28
	C241.66,97.47,235.47,99.01,228.04,99.01z M197.72,51.36v25.06v0.62H177.3V52.91v-3.09c0.31-5.26,0.93-9.9,2.48-13.61
	c1.55-3.71,3.71-6.81,7.12-9.28c4.33-3.4,9.9-4.95,16.71-4.95h0.93v21.35c-0.62-0.62-1.24-0.93-1.55-0.93
	c-0.62-0.31-0.93-0.31-1.55-0.31c-1.86,0-3.09,0.93-3.4,2.78c-0.31,0.62-0.31,1.24-0.31,2.17v3.71V51.36z M148.52,22.28h20.73v54.15
	h-20.73V22.28z M158.73,20.11c-2.78,0-5.26-0.93-7.12-2.78c-1.86-1.86-2.78-4.33-2.78-7.12c0-2.78,0.93-5.26,2.78-7.12
	c1.86-2.17,4.33-3.09,7.12-3.09c2.78,0,5.26,1.24,7.12,3.09c1.86,1.86,2.79,4.33,2.79,7.12c0,2.78-0.93,5.26-2.79,7.12
	C163.99,19.18,161.52,20.11,158.73,20.11z M113.56,49.82V6.5h20.42v16.4h7.74v20.73h-7.74v5.88v1.24c0,2.48,0.62,4.33,1.24,5.26
	c0.62,0.93,1.86,1.55,4.02,1.55h1.24c0.31,0,0.54-0.08,0.77-0.15c0.23-0.08,0.46-0.15,0.77-0.15v20.42
	c-0.93,0.31-1.55,0.31-2.17,0.31H138c-3.71,0-7.12-0.62-10.21-1.86c-3.09-1.24-5.57-2.78-7.74-4.95c-2.17-2.17-3.71-4.95-4.95-8.04
	c-0.93-3.09-1.55-6.81-1.55-10.52V49.82z M109.23,56.62v19.8v0.31H57.86l17.95-34.65h-16.4V22.59h48.89L90.35,56.62H109.23z
	 M8.04,69.31c-2.48-2.48-4.33-5.57-5.88-8.97C0.62,56.93,0,53.22,0,49.51c0-3.71,0.62-7.43,2.17-10.83c1.24-3.4,3.4-6.5,5.88-8.97
	s5.57-4.33,8.97-5.88c3.4-1.55,6.81-2.17,10.83-2.17c3.71,0,7.43,0.62,10.83,2.17c3.4,1.24,6.5,3.4,8.97,5.88
	c2.48,2.48,4.33,5.57,5.88,8.97c1.55,3.4,2.17,6.81,2.17,10.83c0,3.71-0.62,7.43-2.17,10.83c-1.24,3.4-3.4,6.5-5.88,8.97
	c-2.48,2.48-5.57,4.33-8.97,5.88c-3.4,1.55-7.12,2.17-10.83,2.17s-7.43-0.62-10.83-2.17C13.61,73.95,10.52,71.79,8.04,69.31z
	 M28.16,56.93c2.17,0,3.71-0.62,5.26-2.17c1.24-1.55,2.17-3.4,2.17-5.26c0-2.17-0.62-3.71-2.17-5.26c-1.55-1.55-3.4-2.17-5.26-2.17
	c-2.17,0-3.71,0.62-5.26,2.17c-1.55,1.24-2.17,3.09-2.17,5.26c0,2.17,0.62,3.71,2.17,5.26C24.44,56.31,25.99,56.93,28.16,56.93z
	 M12.12,13.02h29.25v4.73H12.12V13.02z"/>
</svg>
